<svg width="20" height="20" viewBox="0 0 20 20" fill="none" xmlns="http://www.w3.org/2000/svg">
<path d="M8.67967 15C8.57513 15 8.47491 14.9582 8.40101 14.8839L4.11547 10.5744C3.96151 10.4196 3.96151 10.1686 4.11547 10.0138L6.34491 7.77179C6.49887 7.61697 6.74843 7.61697 6.90239 7.77179L8.67967 9.55906L13.0976 5.11612C13.1715 5.0418 13.2719 5 13.3764 5C13.4808 5 13.5812 5.0418 13.6551 5.11612L15.8845 7.35826C16.0385 7.51293 16.0385 7.7639 15.8845 7.91872L8.95833 14.884C8.88443 14.9584 8.7842 15 8.67967 15V15ZM4.95161 10.2942L8.67967 14.0432L15.0485 7.63849L13.3764 5.9568L8.95833 10.3998C8.80437 10.5546 8.55481 10.5546 8.40101 10.3998L6.62373 8.61248L4.95161 10.2942Z" fill="#2B88FF" stroke="#2B88FF"/>
</svg>
