<svg width="14" height="12" viewBox="0 0 14 12" fill="none" xmlns="http://www.w3.org/2000/svg">
<path d="M5.67967 11C5.57513 11 5.47491 10.9582 5.40101 10.8839L1.11547 6.57439C0.961511 6.41957 0.961511 6.1686 1.11547 6.01378L3.34491 3.77179C3.49887 3.61697 3.74843 3.61697 3.90239 3.77179L5.67967 5.55906L10.0976 1.11612C10.1715 1.0418 10.2719 1 10.3764 1C10.4808 1 10.5812 1.0418 10.6551 1.11612L12.8845 3.35826C13.0385 3.51293 13.0385 3.7639 12.8845 3.91872L5.95833 10.884C5.88443 10.9584 5.7842 11 5.67967 11ZM1.95161 6.29416L5.67967 10.0432L12.0485 3.63849L10.3764 1.9568L5.95833 6.39975C5.80437 6.55457 5.55481 6.55457 5.40101 6.39975L3.62373 4.61248L1.95161 6.29416Z" fill="#2B88FF" stroke="#2B88FF"/>
</svg>
