<svg width="88" height="88" viewBox="0 0 88 88" fill="none" xmlns="http://www.w3.org/2000/svg">
<path d="M37.125 26.125H39.875V33H37.125V26.125Z" fill="#2A88FF"/>
<path d="M48.125 26.125H50.875V33H48.125V26.125Z" fill="#2A88FF"/>
<path d="M42.625 26.125H45.375V33H42.625V26.125Z" fill="#2A88FF"/>
<path d="M37.125 37.125H39.875V44H37.125V37.125Z" fill="#2A88FF"/>
<path d="M48.125 37.125H50.875V44H48.125V37.125Z" fill="#2A88FF"/>
<path d="M42.625 37.125H45.375V44H42.625V37.125Z" fill="#2A88FF"/>
<path d="M37.125 48.125H39.875V55H37.125V48.125Z" fill="#2A88FF"/>
<path d="M48.125 48.125H50.875V55H48.125V48.125Z" fill="#2A88FF"/>
<path d="M42.625 48.125H45.375V55H42.625V48.125Z" fill="#2A88FF"/>
<path d="M37.125 59.125H39.875V66H37.125V59.125Z" fill="#2A88FF"/>
<path d="M48.125 59.125H50.875V66H48.125V59.125Z" fill="#2A88FF"/>
<path d="M42.625 59.125H45.375V66H42.625V59.125Z" fill="#2A88FF"/>
<path d="M84.522 13.9118L63.897 2.9118C63.6979 2.80555 63.4757 2.74997 63.25 2.75H61.875C61.5103 2.75 61.1606 2.89487 60.9027 3.15273C60.6449 3.41059 60.5 3.76033 60.5 4.125V20.625H63.25V5.68329L82.5 15.95V66H85.25V15.125C85.25 14.8758 85.1823 14.6313 85.0541 14.4176C84.9259 14.2039 84.7419 14.029 84.522 13.9118Z" fill="#2A88FF"/>
<path d="M82.5 82.5H75.625V85.25H83.875C84.2397 85.25 84.5894 85.1051 84.8473 84.8473C85.1051 84.5894 85.25 84.2397 85.25 83.875V68.75H82.5V82.5Z" fill="#2A88FF"/>
<path d="M72.2382 30.465L57.1132 20.84C56.8926 20.6996 56.6365 20.625 56.375 20.625H56.0735L53.5839 10.6666C53.5096 10.3691 53.3379 10.1049 53.0962 9.91621C52.8545 9.72748 52.5567 9.62497 52.25 9.625H45.375V2.75H42.625V9.625H35.75C35.4433 9.62497 35.1455 9.72748 34.9038 9.91621C34.6621 10.1049 34.4904 10.3691 34.4161 10.6666L31.9265 20.625H31.625C31.3635 20.625 31.1074 20.6996 30.8868 20.84L15.7618 30.465C15.5667 30.5892 15.406 30.7606 15.2947 30.9633C15.1833 31.1661 15.125 31.3937 15.125 31.625V83.875C15.125 84.2397 15.2699 84.5894 15.5277 84.8473C15.7856 85.1051 16.1353 85.25 16.5 85.25H71.5C71.8647 85.25 72.2144 85.1051 72.4723 84.8473C72.7301 84.5894 72.875 84.2397 72.875 83.875V31.625C72.875 31.3937 72.8167 31.1661 72.7053 30.9633C72.594 30.7606 72.4333 30.5892 72.2382 30.465ZM36.8235 12.375H51.1765L53.239 20.625H49.5V15.125H46.75V20.625H41.25V15.125H38.5V20.625H34.761L36.8235 12.375ZM17.875 32.3798L31.625 23.6298V82.5H26.125V75.625H23.375V82.5H17.875V32.3798ZM34.375 23.375H53.625V82.5H50.875V70.125C50.875 69.7603 50.7301 69.4106 50.4723 69.1527C50.2144 68.8949 49.8647 68.75 49.5 68.75H38.5C38.1353 68.75 37.7856 68.8949 37.5277 69.1527C37.2699 69.4106 37.125 69.7603 37.125 70.125V82.5H34.375V23.375ZM39.875 71.5H42.625V82.5H39.875V71.5ZM45.375 82.5V71.5H48.125V82.5H45.375ZM70.125 82.5H64.625V75.625H61.875V82.5H56.375V23.6298L70.125 32.3798V82.5Z" fill="#2A88FF"/>
<path d="M75.625 38.5H79.75V41.25H75.625V38.5Z" fill="#2A88FF"/>
<path d="M75.625 45.375H79.75V48.125H75.625V45.375Z" fill="#2A88FF"/>
<path d="M75.625 52.25H79.75V55H75.625V52.25Z" fill="#2A88FF"/>
<path d="M75.625 59.125H79.75V61.875H75.625V59.125Z" fill="#2A88FF"/>
<path d="M75.625 66H79.75V68.75H75.625V66Z" fill="#2A88FF"/>
<path d="M75.625 72.875H79.75V75.625H75.625V72.875Z" fill="#2A88FF"/>
<path d="M64.625 66H67.375V72.875H64.625V66Z" fill="#2A88FF"/>
<path d="M59.125 66H61.875V72.875H59.125V66Z" fill="#2A88FF"/>
<path d="M64.625 55H67.375V61.875H64.625V55Z" fill="#2A88FF"/>
<path d="M59.125 55H61.875V61.875H59.125V55Z" fill="#2A88FF"/>
<path d="M64.625 44H67.375V50.875H64.625V44Z" fill="#2A88FF"/>
<path d="M59.125 44H61.875V50.875H59.125V44Z" fill="#2A88FF"/>
<path d="M64.625 33H67.375V39.875H64.625V33Z" fill="#2A88FF"/>
<path d="M59.125 33H61.875V39.875H59.125V33Z" fill="#2A88FF"/>
<path d="M75.625 31.625H79.75V34.375H75.625V31.625Z" fill="#2A88FF"/>
<path d="M70.125 24.75H79.75V27.5H70.125V24.75Z" fill="#2A88FF"/>
<path d="M66 17.875H79.75V20.625H66V17.875Z" fill="#2A88FF"/>
<path d="M5.5 15.95L24.75 5.68329V20.625H27.5V4.125C27.5 3.76033 27.3551 3.41059 27.0973 3.15273C26.8394 2.89487 26.4897 2.75 26.125 2.75H24.75C24.5243 2.74997 24.3021 2.80555 24.103 2.9118L3.47796 13.9118C3.25805 14.029 3.07415 14.2039 2.94592 14.4176C2.8177 14.6313 2.74998 14.8758 2.75 15.125V24.75H5.5V15.95Z" fill="#2A88FF"/>
<path d="M5.5 27.5H2.75V83.875C2.75 84.2397 2.89487 84.5894 3.15273 84.8473C3.41059 85.1051 3.76033 85.25 4.125 85.25H12.375V82.5H5.5V27.5Z" fill="#2A88FF"/>
<path d="M8.25 38.5H12.375V41.25H8.25V38.5Z" fill="#2A88FF"/>
<path d="M8.25 45.375H12.375V48.125H8.25V45.375Z" fill="#2A88FF"/>
<path d="M8.25 52.25H12.375V55H8.25V52.25Z" fill="#2A88FF"/>
<path d="M8.25 59.125H12.375V61.875H8.25V59.125Z" fill="#2A88FF"/>
<path d="M8.25 66H12.375V68.75H8.25V66Z" fill="#2A88FF"/>
<path d="M8.25 72.875H12.375V75.625H8.25V72.875Z" fill="#2A88FF"/>
<path d="M20.625 66H23.375V72.875H20.625V66Z" fill="#2A88FF"/>
<path d="M26.125 66H28.875V72.875H26.125V66Z" fill="#2A88FF"/>
<path d="M20.625 55H23.375V61.875H20.625V55Z" fill="#2A88FF"/>
<path d="M26.125 55H28.875V61.875H26.125V55Z" fill="#2A88FF"/>
<path d="M20.625 44H23.375V50.875H20.625V44Z" fill="#2A88FF"/>
<path d="M26.125 44H28.875V50.875H26.125V44Z" fill="#2A88FF"/>
<path d="M20.625 33H23.375V39.875H20.625V33Z" fill="#2A88FF"/>
<path d="M26.125 33H28.875V39.875H26.125V33Z" fill="#2A88FF"/>
<path d="M8.25 31.625H12.375V34.375H8.25V31.625Z" fill="#2A88FF"/>
<path d="M8.25 24.75H17.875V27.5H8.25V24.75Z" fill="#2A88FF"/>
<path d="M8.25 17.875H22V20.625H8.25V17.875Z" fill="#2A88FF"/>
</svg>
