<svg width="18" height="16" viewBox="0 0 18 16" fill="none" xmlns="http://www.w3.org/2000/svg">
<path d="M16.418 6.41797H13.7461V2.72656C13.7461 1.27268 12.5633 0.0898438 11.1094 0.0898438H4.78125C4.49002 0.0898438 4.25391 0.325953 4.25391 0.617188V6.41797H1.58203C0.709699 6.41797 0 7.12767 0 8V11.1641C0 12.0364 0.709699 12.7461 1.58203 12.7461H4.25391V15.3828C4.25391 15.674 4.49002 15.9102 4.78125 15.9102H13.2188C13.51 15.9102 13.7461 15.674 13.7461 15.3828V12.7461H16.418C17.2903 12.7461 18 12.0364 18 11.1641V8C18 7.12767 17.2903 6.41797 16.418 6.41797ZM12.6007 2.19922H11.6367V1.23523C12.0855 1.39439 12.4416 1.75048 12.6007 2.19922ZM5.30859 1.14453H10.582V2.72656C10.582 3.0178 10.8181 3.25391 11.1094 3.25391H12.6914V6.41797H5.30859V1.14453ZM12.6914 14.8555H5.30859V11.6914H12.6914V14.8555ZM16.9453 11.1641C16.9453 11.4548 16.7087 11.6914 16.418 11.6914H13.7461V11.1641C13.7461 10.8728 13.51 10.6367 13.2188 10.6367H4.78125C4.49002 10.6367 4.25391 10.8728 4.25391 11.1641V11.6914H1.58203C1.29125 11.6914 1.05469 11.4548 1.05469 11.1641V8C1.05469 7.70922 1.29125 7.47266 1.58203 7.47266H16.418C16.7087 7.47266 16.9453 7.70922 16.9453 8V11.1641Z" fill="#EB3D00"/>
<path d="M13.2188 9.58203C13.51 9.58203 13.7461 9.34593 13.7461 9.05469C13.7461 8.76344 13.51 8.52734 13.2188 8.52734C12.9275 8.52734 12.6914 8.76344 12.6914 9.05469C12.6914 9.34593 12.9275 9.58203 13.2188 9.58203Z" fill="#EB3D00"/>
<path d="M11.1094 9.58203C11.4006 9.58203 11.6367 9.34593 11.6367 9.05469C11.6367 8.76344 11.4006 8.52734 11.1094 8.52734C10.8181 8.52734 10.582 8.76344 10.582 9.05469C10.582 9.34593 10.8181 9.58203 11.1094 9.58203Z" fill="#EB3D00"/>
<path d="M11.1094 12.7461H6.89062C6.59939 12.7461 6.36328 12.9822 6.36328 13.2734C6.36328 13.5647 6.59939 13.8008 6.89062 13.8008H11.1094C11.4006 13.8008 11.6367 13.5647 11.6367 13.2734C11.6367 12.9822 11.4006 12.7461 11.1094 12.7461Z" fill="#EB3D00"/>
</svg>
