<svg width="12" height="12" viewBox="0 0 12 12" fill="none" xmlns="http://www.w3.org/2000/svg">
<path fill-rule="evenodd" clip-rule="evenodd" d="M1.49517 2.43627C1.65333 2.17439 2.52475 1.22188 3.14661 1.25064C3.3325 1.26604 3.49682 1.37849 3.63033 1.50892C3.9369 1.80828 4.81448 2.94051 4.86429 3.17876C4.98548 3.76311 4.28916 4.09995 4.50227 4.68891C5.04556 6.01832 5.98169 6.9544 7.31167 7.49715C7.90015 7.71024 8.23701 7.01396 8.82139 7.13566C9.05914 7.18546 10.1919 8.063 10.4913 8.36955C10.6212 8.50255 10.7342 8.66737 10.7496 8.85325C10.7727 9.50794 9.76111 10.3916 9.56392 10.5046C9.09868 10.8373 8.49171 10.8317 7.75175 10.4877C5.68693 9.62861 2.38713 6.39111 1.51211 4.24835C1.1773 3.51253 1.1542 2.90148 1.49517 2.43627Z" stroke="#9F9F9F" stroke-width="1.5" stroke-linecap="round" stroke-linejoin="round"/>
</svg>
