<svg width="68" height="44" viewBox="0 0 68 44" fill="none" xmlns="http://www.w3.org/2000/svg">
<path d="M48.17 1.73501C47.8077 1.44816 47.3921 1.2359 46.9473 1.11048C46.5025 0.985065 46.0373 0.948974 45.5785 1.00429C45.1197 1.05961 44.6764 1.20524 44.2742 1.43278C43.8719 1.66032 43.5187 1.96526 43.235 2.33001L18.735 33.83L6.72998 19.2C6.44839 18.8252 6.09436 18.5107 5.68891 18.2753C5.28346 18.04 4.83485 17.8884 4.36971 17.8298C3.90457 17.7711 3.43238 17.8064 2.98117 17.9338C2.52997 18.0611 2.10894 18.2777 1.74307 18.5709C1.37721 18.8641 1.07397 19.2277 0.851364 19.6403C0.628753 20.0529 0.491305 20.5061 0.447178 20.9728C0.403052 21.4395 0.453147 21.9104 0.594489 22.3574C0.735831 22.8044 0.965539 23.2185 1.26998 23.575L15.865 41.705C16.1944 42.1111 16.6106 42.4382 17.083 42.6623C17.5555 42.8864 18.0721 43.0018 18.595 43C19.15 43.0248 19.7029 42.9171 20.2081 42.6858C20.7132 42.4546 21.1561 42.1064 21.5 41.67L48.905 6.67001C49.1844 6.2991 49.3872 5.8763 49.5016 5.42624C49.6159 4.97618 49.6396 4.50786 49.5712 4.04855C49.5028 3.58925 49.3437 3.14815 49.1031 2.75096C48.8625 2.35376 48.5453 2.0084 48.17 1.73501ZM65.67 1.73501C65.3077 1.44816 64.8921 1.2359 64.4473 1.11048C64.0025 0.985065 63.5373 0.948974 63.0785 1.00429C62.6197 1.05961 62.1764 1.20524 61.7742 1.43278C61.3719 1.66032 61.0187 1.96526 60.735 2.33001L36.235 33.83L34.1 31.205L29.69 36.875L33.54 41.67C33.8694 42.0761 34.2856 42.4032 34.758 42.6273C35.2305 42.8514 35.7471 42.9668 36.27 42.965C36.7957 42.9626 37.3141 42.8418 37.7867 42.6115C38.2594 42.3813 38.674 42.0475 39 41.635L66.405 6.63501C66.6789 6.26519 66.8772 5.84497 66.9886 5.3984C67.0999 4.95184 67.122 4.48771 67.0538 4.03257C66.9855 3.57743 66.8281 3.14022 66.5907 2.74598C66.3532 2.35173 66.0404 2.00819 65.67 1.73501Z" fill="#01A011"/>
</svg>
