<svg width="16" height="12" viewBox="0 0 16 12" fill="none" xmlns="http://www.w3.org/2000/svg">
<path d="M15.675 0.408364C15.5975 0.330257 15.5054 0.268262 15.4038 0.225955C15.3023 0.183647 15.1933 0.161865 15.0833 0.161865C14.9733 0.161865 14.8644 0.183647 14.7629 0.225955C14.6613 0.268262 14.5691 0.330257 14.4917 0.408364L5.08334 9.82503L1.50834 6.2417C1.35142 6.08478 1.13859 5.99662 0.916668 5.99662C0.69475 5.99662 0.481922 6.08478 0.325002 6.2417C0.168082 6.39862 0.0799255 6.61145 0.0799255 6.83336C0.0799255 7.05528 0.168082 7.26811 0.325002 7.42503L4.49167 11.5917C4.56914 11.6698 4.6613 11.7318 4.76285 11.7741C4.8644 11.8164 4.97333 11.8382 5.08334 11.8382C5.19335 11.8382 5.30227 11.8164 5.40382 11.7741C5.50537 11.7318 5.59753 11.6698 5.675 11.5917L15.675 1.5917C15.7531 1.51423 15.8151 1.42206 15.8574 1.32051C15.8997 1.21896 15.9215 1.11004 15.9215 1.00003C15.9215 0.890021 15.8997 0.781099 15.8574 0.67955C15.8151 0.578 15.7531 0.485833 15.675 0.408364Z" fill="#01A011"/>
</svg>
